/* XPM */
static char *floatspinmultiplier[] = {
/* columns rows colors chars-per-pixel */
"21 21 256 2 ",
"   c black",
".  c #010101",
"X  c #000002",
"o  c #020202",
"O  c gray1",
"+  c #040404",
"@  c gray2",
"#  c #070707",
"$  c #060608",
"%  c gray3",
"&  c #090909",
"*  c gray4",
"=  c #0B0B0B",
"-  c #0C0C0C",
";  c #111111",
":  c #131313",
">  c gray42",
",  c gray45",
"<  c gray47",
"1  c #797979",
"2  c #7C7C7C",
"3  c gray51",
"4  c #838383",
"5  c #888888",
"6  c gray56",
"7  c gray75",
"8  c #CDCDCD",
"9  c gray81",
"0  c gray83",
"q  c gray92",
"w  c #F6F6F6",
"e  c gray97",
"r  c #FBFBFB",
"t  c gray99",
"y  c #FDFDFD",
"u  c #FEFEFE",
"i  c gray100",
"p  c black",
"a  c black",
"s  c black",
"d  c black",
"f  c black",
"g  c black",
"h  c black",
"j  c black",
"k  c black",
"l  c black",
"z  c black",
"x  c black",
"c  c black",
"v  c black",
"b  c black",
"n  c black",
"m  c black",
"M  c black",
"N  c black",
"B  c black",
"V  c black",
"C  c black",
"Z  c black",
"A  c black",
"S  c black",
"D  c black",
"F  c black",
"G  c black",
"H  c black",
"J  c black",
"K  c black",
"L  c black",
"P  c black",
"I  c black",
"U  c black",
"Y  c black",
"T  c black",
"R  c black",
"E  c black",
"W  c black",
"Q  c black",
"!  c black",
"~  c black",
"^  c black",
"/  c black",
"(  c black",
")  c black",
"_  c black",
"`  c black",
"'  c black",
"]  c black",
"[  c black",
"{  c black",
"}  c black",
"|  c black",
" . c black",
".. c black",
"X. c black",
"o. c black",
"O. c black",
"+. c black",
"@. c black",
"#. c black",
"$. c black",
"%. c black",
"&. c black",
"*. c black",
"=. c black",
"-. c black",
";. c black",
":. c black",
">. c black",
",. c black",
"<. c black",
"1. c black",
"2. c black",
"3. c black",
"4. c black",
"5. c black",
"6. c black",
"7. c black",
"8. c black",
"9. c black",
"0. c black",
"q. c black",
"w. c black",
"e. c black",
"r. c black",
"t. c black",
"y. c black",
"u. c black",
"i. c black",
"p. c black",
"a. c black",
"s. c black",
"d. c black",
"f. c black",
"g. c black",
"h. c black",
"j. c black",
"k. c black",
"l. c black",
"z. c black",
"x. c black",
"c. c black",
"v. c black",
"b. c black",
"n. c black",
"m. c black",
"M. c black",
"N. c black",
"B. c black",
"V. c black",
"C. c black",
"Z. c black",
"A. c black",
"S. c black",
"D. c black",
"F. c black",
"G. c black",
"H. c black",
"J. c black",
"K. c black",
"L. c black",
"P. c black",
"I. c black",
"U. c black",
"Y. c black",
"T. c black",
"R. c black",
"E. c black",
"W. c black",
"Q. c black",
"!. c black",
"~. c black",
"^. c black",
"/. c black",
"(. c black",
"). c black",
"_. c black",
"`. c black",
"'. c black",
"]. c black",
"[. c black",
"{. c black",
"}. c black",
"|. c black",
" X c black",
".X c black",
"XX c black",
"oX c black",
"OX c black",
"+X c black",
"@X c black",
"#X c black",
"$X c black",
"%X c black",
"&X c black",
"*X c black",
"=X c black",
"-X c black",
";X c black",
":X c black",
">X c black",
",X c black",
"<X c black",
"1X c black",
"2X c black",
"3X c black",
"4X c black",
"5X c black",
"6X c black",
"7X c black",
"8X c black",
"9X c black",
"0X c black",
"qX c black",
"wX c black",
"eX c black",
"rX c black",
"tX c black",
"yX c black",
"uX c black",
"iX c black",
"pX c black",
"aX c black",
"sX c black",
"dX c black",
"fX c black",
"gX c black",
"hX c black",
"jX c black",
"kX c black",
"lX c black",
"zX c black",
"xX c black",
"cX c black",
"vX c black",
"bX c black",
"nX c black",
"mX c black",
"MX c black",
"NX c black",
"BX c black",
"VX c black",
"CX c black",
"ZX c black",
"AX c black",
"SX c black",
"DX c black",
"FX c black",
"GX c black",
"HX c black",
"JX c black",
"KX c black",
"LX c black",
"PX c black",
"IX c black",
"UX c black",
/* pixels */
"i i i i i i i i i i i i i i i i i i i i i ",
"i i i i i i i i i i i i i i i i i i i i i ",
"i i i i i i i i i i i i i i i i i i i i i ",
"i i i i i i i i i i i i i i i i i i i i i ",
"i i i i i i i i i i i i i i i i i i i i i ",
"i i i i i i i i i i i i i i i i i i i i i ",
"i   $   X   X   X   X   o .   o %       i ",
"i : i i i i i i i i i i e   y i q t i o i ",
"i   i i   i i   i i i   i o t 0 # 9 6   i ",
"i   i     i i i   i   i r   i   + @ 2 . i ",
"i . i i   i i i i   i i y - i i e i i   i ",
"i % i i   i y i   i   i y   i   & ; > = i ",
"i * w       i   i i i   i O i 8   7 , * i ",
"i   i u i i i i i i i i i   < 4 1 3 5   i ",
"i + =   . . . . . . . . . . . . . . . . i ",
"i i i i i i i i i i i i i i i i i i i i i ",
"i i i i i i i i i i i i i i i i i i i i i ",
"i i i i i i i i i i i i i i i i i i i i i ",
"i i i i i i i i i i i i i i i i i i i i i ",
"i i i i i i i i i i i i i i i i i i i i i ",
"i i i i i i i i i i i i i i i i i i i i i "
};
